<svg width="24" height="24" viewBox="0 0 24 24" fill="none" xmlns="http://www.w3.org/2000/svg">
<mask id="mask0_14_917" style="mask-type:alpha" maskUnits="userSpaceOnUse" x="0" y="0" width="24" height="24">
<rect width="24" height="24" fill="#D9D9D9"/>
</mask>
<g mask="url(#mask0_14_917)">
<path d="M15.7726 12.9731L14.6496 11.8501C14.7996 11.0219 14.5633 10.2773 13.9408 9.61631C13.3185 8.95548 12.5548 8.70006 11.6496 8.85006L10.5266 7.72706C10.7523 7.62573 10.9837 7.54973 11.2208 7.49906C11.458 7.4484 11.7176 7.42306 11.9996 7.42306C13.1343 7.42306 14.0974 7.8189 14.8891 8.61056C15.6808 9.40223 16.0766 10.3654 16.0766 11.5001C16.0766 11.7821 16.0513 12.0449 16.0006 12.2886C15.9499 12.5321 15.8739 12.7602 15.7726 12.9731ZM18.9533 16.0846L17.8496 15.0501C18.4829 14.5667 19.0454 14.0376 19.5371 13.4626C20.0288 12.8876 20.4496 12.2334 20.7996 11.5001C19.9663 9.81673 18.7704 8.47923 17.2121 7.48756C15.6538 6.4959 13.9163 6.00006 11.9996 6.00006C11.5163 6.00006 11.0413 6.0334 10.5746 6.10006C10.1079 6.16673 9.64959 6.26673 9.19959 6.40006L8.03434 5.23481C8.66634 4.98348 9.31184 4.79823 9.97084 4.67906C10.6298 4.55973 11.3061 4.50006 11.9996 4.50006C14.3431 4.50006 16.4565 5.14623 18.3398 6.43856C20.2232 7.7309 21.5969 9.41806 22.4611 11.5001C22.0906 12.3936 21.6121 13.2276 21.0256 14.0021C20.4389 14.7764 19.7482 15.4706 18.9533 16.0846ZM19.7611 21.8693L15.7151 17.8538C15.2023 18.0436 14.6339 18.1988 14.0101 18.3193C13.3864 18.4398 12.7163 18.5001 11.9996 18.5001C9.64959 18.5001 7.53617 17.8539 5.65934 16.5616C3.78234 15.2692 2.40859 13.5821 1.53809 11.5001C1.90725 10.6167 2.38417 9.79273 2.96884 9.02806C3.5535 8.26323 4.19709 7.60006 4.89959 7.03856L2.13034 4.23856L3.18434 3.18481L20.8148 20.8153L19.7611 21.8693ZM5.95359 8.09231C5.42525 8.51281 4.91142 9.01831 4.41209 9.60881C3.91275 10.1991 3.50859 10.8296 3.19959 11.5001C4.03292 13.1834 5.22875 14.5209 6.78709 15.5126C8.34542 16.5042 10.0829 17.0001 11.9996 17.0001C12.4548 17.0001 12.908 16.9616 13.3593 16.8846C13.8105 16.8077 14.1932 16.7283 14.5073 16.6463L13.2418 15.3501C13.0713 15.4192 12.8739 15.4743 12.6496 15.5153C12.4253 15.5565 12.2086 15.5771 11.9996 15.5771C10.8649 15.5771 9.90175 15.1812 9.11009 14.3896C8.31842 13.5979 7.92259 12.6347 7.92259 11.5001C7.92259 11.2976 7.94317 11.0857 7.98434 10.8646C8.02534 10.6434 8.08042 10.4411 8.14959 10.2578L5.95359 8.09231Z" fill="#111111"/>
</g>
</svg>
